# xmcd
#
# Track frame offsets:
#	150
#	14976
#	32650
#	50681
#	65330
#
# Disc length: 1100 seconds
#
# Revision: 1
# Processed by: cddbd v1.5.2PL0 Copyright (c) Steve Scherf et al.
# Submitted via: audiograbber 1.83.01
#
DISCID=43044a05
DTITLE=Benedicte Braenden - SpezialTour Edition 2008
DYEAR=2008
DGENRE=Country
TTITLE0=Cold Hard Rain
TTITLE1=Winter
TTITLE2=Rock Star
TTITLE3=So Alone
TTITLE4=River Bonus Track
EXTD=
EXTT0=
EXTT1=
EXTT2=
EXTT3=
EXTT4=
PLAYORDER=
